<?xml version="1.0" encoding="utf-8"?>
<!-- Generator: Adobe Illustrator 18.0.0, SVG Export Plug-In . SVG Version: 6.00 Build 0)  -->
<!DOCTYPE svg PUBLIC "-//W3C//DTD SVG 1.1//EN" "http://www.w3.org/Graphics/SVG/1.1/DTD/svg11.dtd">
<svg version="1.1" id="Layer_1" xmlns="http://www.w3.org/2000/svg" xmlns:xlink="http://www.w3.org/1999/xlink" x="0px" y="0px"
	 viewBox="0 0 350 86.9" enable-background="new 0 0 350 86.9" xml:space="preserve">
<g>
	<g>
		<path fill="#262626" d="M110.8,10.2h9.5c6,0,9,3.3,9,9.5V39c0,6.1-3,9.5-9,9.5h-9.5V10.2z M116.8,15.6V43h3.4c1.9,0,3.1-1,3.1-3.7
			V19.4c0-2.7-1.1-3.7-3.1-3.7H116.8z"/>
		<path fill="#262626" d="M134.2,10.2h6v38.3h-6V10.2z"/>
		<path fill="#262626" d="M154.8,41.4l4.6-31.3h5.5L159,48.5h-9l-5.9-38.3h6.1L154.8,41.4z"/>
		<path fill="#262626" d="M168.8,10.2h6v38.3h-6V10.2z"/>
		<path fill="#262626" d="M185.7,20.7v27.8h-5.4V10.2h7.6l6.2,22.9V10.2h5.4v38.3h-6.2L185.7,20.7z"/>
		<path fill="#262626" d="M210.8,26.3h8.3v5.5h-8.3V43h10.4v5.5h-16.4V10.2h16.4v5.5h-10.4V26.3z"/>
		<path fill="#262626" d="M244.7,41.4l4.6-31.3h5.5L249,48.5h-9l-5.9-38.3h6.1L244.7,41.4z"/>
		<path fill="#262626" d="M258.8,10.2h6v38.3h-6V10.2z"/>
		<path fill="#262626" d="M270.3,10.2h6V43h9.9v5.5h-15.9V10.2z"/>
		<path fill="#262626" d="M289.9,10.2h6V43h9.9v5.5h-15.9V10.2z"/>
		<path fill="#262626" d="M329.1,48.5H323l-1-7h-7.4l-1,7H308l6.1-38.3h8.8L329.1,48.5z M315.3,36.3h5.8L318.2,17L315.3,36.3z"/>
		<path fill="#262626" d="M341.1,9.7c5.9,0,8.9,3.5,8.9,9.6v1.2h-5.7V19c0-2.7-1.1-3.8-3-3.8s-3,1-3,3.8c0,7.9,11.8,9.4,11.8,20.3
			c0,6.1-3.1,9.6-9,9.6c-5.9,0-9-3.5-9-9.6v-2.4h5.7v2.7c0,2.7,1.2,3.7,3.1,3.7c1.9,0,3.1-1,3.1-3.7c0-7.9-11.8-9.4-11.8-20.3
			C332.2,13.2,335.2,9.7,341.1,9.7z"/>
	</g>
	<g>
		<path fill="#08A191" d="M120.8,77h-1.9c-0.4,0-0.7-0.1-0.8-0.4l-3.1-4.4c-0.1-0.2-0.2-0.3-0.3-0.3c-0.1-0.1-0.3-0.1-0.5-0.1h-1.2
			V77h-2.1V63.8h3.9c0.9,0,1.6,0.1,2.2,0.3c0.6,0.2,1.1,0.4,1.5,0.8c0.4,0.3,0.7,0.7,0.9,1.2c0.2,0.5,0.3,1,0.3,1.5
			c0,0.5-0.1,0.9-0.2,1.3c-0.1,0.4-0.3,0.8-0.6,1.1c-0.3,0.3-0.6,0.6-1,0.8c-0.4,0.2-0.8,0.4-1.3,0.6c0.3,0.2,0.5,0.4,0.7,0.7
			L120.8,77z M114.6,70.1c0.5,0,0.9-0.1,1.3-0.2c0.4-0.1,0.7-0.3,0.9-0.5c0.2-0.2,0.4-0.5,0.5-0.8c0.1-0.3,0.2-0.6,0.2-1
			c0-0.7-0.2-1.3-0.7-1.6c-0.5-0.4-1.2-0.6-2.2-0.6h-1.7v4.6H114.6z"/>
		<path fill="#08A191" d="M132.5,75.3l0,1.7h-8.2V63.8h8.2v1.7h-6.1v4h4.8v1.7h-4.8v4.1H132.5z"/>
		<path fill="#08A191" d="M147.6,77H146c-0.2,0-0.3,0-0.5-0.1c-0.1-0.1-0.2-0.2-0.3-0.4l-1.1-2.9h-5.7l-1.1,2.9
			c0,0.1-0.1,0.2-0.3,0.3s-0.3,0.2-0.5,0.2H135l5.2-13.2h2.2L147.6,77z M143.6,72l-1.8-4.8c-0.1-0.4-0.3-0.8-0.4-1.4
			c-0.1,0.3-0.1,0.6-0.2,0.8c-0.1,0.2-0.2,0.5-0.2,0.6l-1.8,4.8H143.6z"/>
		<path fill="#08A191" d="M158.6,75.2V77H151V63.8h2.1v11.4H158.6z"/>
		<path fill="#08A191" d="M176.3,75.3l0,1.7h-8.2V63.8h8.2v1.7h-6.1v4h4.8v1.7h-4.8v4.1H176.3z"/>
		<path fill="#08A191" d="M187.4,66.1c-0.1,0.1-0.1,0.2-0.2,0.2c-0.1,0.1-0.2,0.1-0.3,0.1c-0.1,0-0.2,0-0.4-0.1
			c-0.1-0.1-0.3-0.2-0.5-0.3c-0.2-0.1-0.5-0.2-0.7-0.3s-0.6-0.2-1-0.2c-0.4,0-0.7,0-1,0.1c-0.3,0.1-0.5,0.2-0.7,0.4
			c-0.2,0.2-0.3,0.4-0.4,0.6c-0.1,0.2-0.1,0.5-0.1,0.7c0,0.3,0.1,0.6,0.3,0.8c0.2,0.2,0.4,0.4,0.7,0.6s0.6,0.3,1,0.4
			c0.4,0.1,0.8,0.2,1.1,0.4c0.4,0.1,0.8,0.3,1.1,0.5c0.4,0.2,0.7,0.4,1,0.6c0.3,0.3,0.5,0.6,0.7,1c0.2,0.4,0.3,0.8,0.3,1.4
			c0,0.6-0.1,1.1-0.3,1.6c-0.2,0.5-0.5,1-0.9,1.3c-0.4,0.4-0.9,0.7-1.4,0.9c-0.6,0.2-1.2,0.3-1.9,0.3c-0.4,0-0.8,0-1.2-0.1
			c-0.4-0.1-0.8-0.2-1.1-0.3c-0.4-0.1-0.7-0.3-1-0.5c-0.3-0.2-0.6-0.5-0.9-0.7l0.6-1c0.1-0.1,0.1-0.2,0.2-0.2c0.1,0,0.2-0.1,0.3-0.1
			c0.1,0,0.3,0.1,0.5,0.2c0.2,0.1,0.4,0.3,0.6,0.4s0.5,0.3,0.9,0.4c0.3,0.1,0.7,0.2,1.2,0.2c0.8,0,1.4-0.2,1.8-0.6
			c0.4-0.4,0.6-0.9,0.6-1.6c0-0.4-0.1-0.7-0.3-0.9c-0.2-0.2-0.4-0.4-0.7-0.6c-0.3-0.2-0.6-0.3-1-0.4c-0.4-0.1-0.7-0.2-1.1-0.4
			c-0.4-0.1-0.8-0.3-1.1-0.4c-0.4-0.2-0.7-0.4-1-0.7c-0.3-0.3-0.5-0.6-0.7-1c-0.2-0.4-0.3-0.9-0.3-1.5c0-0.5,0.1-0.9,0.3-1.4
			c0.2-0.4,0.5-0.8,0.8-1.2c0.4-0.3,0.8-0.6,1.3-0.8c0.5-0.2,1.1-0.3,1.8-0.3c0.8,0,1.4,0.1,2.1,0.4c0.6,0.2,1.2,0.6,1.6,1
			L187.4,66.1z"/>
		<path fill="#08A191" d="M201.3,65.6h-4.1V77h-2.1V65.6H191v-1.8h10.4V65.6z"/>
		<path fill="#08A191" d="M214.7,77h-1.7c-0.2,0-0.3,0-0.5-0.1c-0.1-0.1-0.2-0.2-0.3-0.4l-1.1-2.9h-5.7l-1.1,2.9
			c0,0.1-0.1,0.2-0.3,0.3c-0.1,0.1-0.3,0.2-0.5,0.2h-1.7l5.2-13.2h2.2L214.7,77z M210.7,72l-1.8-4.8c-0.1-0.4-0.3-0.8-0.4-1.4
			c-0.1,0.3-0.1,0.6-0.2,0.8c-0.1,0.2-0.2,0.5-0.2,0.6l-1.8,4.8H210.7z"/>
		<path fill="#08A191" d="M225.9,65.6h-4.1V77h-2.1V65.6h-4.1v-1.8h10.4V65.6z"/>
		<path fill="#08A191" d="M237.8,75.3l0,1.7h-8.2V63.8h8.2v1.7h-6.1v4h4.8v1.7h-4.8v4.1H237.8z"/>
		<path fill="#08A191" d="M257.4,74c0.1,0,0.2,0,0.3,0.1l0.9,0.9c-0.5,0.6-1.2,1.1-2,1.5c-0.8,0.4-1.7,0.5-2.8,0.5
			c-1,0-1.8-0.2-2.6-0.5c-0.8-0.3-1.4-0.8-2-1.4c-0.5-0.6-1-1.3-1.3-2.1c-0.3-0.8-0.4-1.7-0.4-2.7s0.2-1.9,0.5-2.7
			c0.3-0.8,0.8-1.5,1.3-2.1c0.6-0.6,1.3-1.1,2-1.4c0.8-0.3,1.7-0.5,2.6-0.5c1,0,1.8,0.2,2.5,0.5c0.7,0.3,1.4,0.7,1.9,1.2l-0.7,1
			c0,0.1-0.1,0.1-0.2,0.2c-0.1,0-0.2,0.1-0.3,0.1c-0.1,0-0.3-0.1-0.4-0.2c-0.2-0.1-0.4-0.2-0.6-0.4c-0.2-0.1-0.5-0.3-0.9-0.4
			c-0.4-0.1-0.8-0.2-1.4-0.2c-0.6,0-1.2,0.1-1.7,0.3c-0.5,0.2-1,0.5-1.4,1c-0.4,0.4-0.7,0.9-0.9,1.5c-0.2,0.6-0.3,1.3-0.3,2.1
			c0,0.8,0.1,1.5,0.3,2.1c0.2,0.6,0.5,1.1,0.9,1.5c0.4,0.4,0.8,0.7,1.4,1c0.5,0.2,1.1,0.3,1.7,0.3c0.4,0,0.7,0,1-0.1
			c0.3,0,0.6-0.1,0.8-0.2c0.2-0.1,0.5-0.2,0.7-0.3c0.2-0.1,0.4-0.3,0.6-0.5C257.2,74.1,257.3,74,257.4,74z"/>
		<path fill="#08A191" d="M274.4,70.4c0,1-0.2,1.9-0.5,2.7s-0.8,1.5-1.3,2.1c-0.6,0.6-1.3,1.1-2.1,1.4c-0.8,0.3-1.7,0.5-2.7,0.5
			c-1,0-1.9-0.2-2.7-0.5c-0.8-0.3-1.5-0.8-2.1-1.4c-0.6-0.6-1-1.3-1.3-2.1c-0.3-0.8-0.5-1.7-0.5-2.7c0-1,0.2-1.9,0.5-2.7
			c0.3-0.8,0.8-1.5,1.3-2.1c0.6-0.6,1.3-1.1,2.1-1.4c0.8-0.3,1.7-0.5,2.7-0.5c1,0,1.9,0.2,2.7,0.5c0.8,0.3,1.5,0.8,2.1,1.4
			c0.6,0.6,1,1.3,1.3,2.1C274.2,68.5,274.4,69.4,274.4,70.4z M272.2,70.4c0-0.8-0.1-1.4-0.3-2c-0.2-0.6-0.5-1.1-0.9-1.5
			c-0.4-0.4-0.8-0.7-1.4-1c-0.5-0.2-1.2-0.3-1.8-0.3c-0.7,0-1.3,0.1-1.8,0.3c-0.5,0.2-1,0.5-1.4,1c-0.4,0.4-0.7,0.9-0.9,1.5
			c-0.2,0.6-0.3,1.3-0.3,2c0,0.8,0.1,1.4,0.3,2c0.2,0.6,0.5,1.1,0.9,1.5c0.4,0.4,0.8,0.7,1.4,1s1.1,0.3,1.8,0.3
			c0.7,0,1.3-0.1,1.8-0.3s1-0.5,1.4-1c0.4-0.4,0.7-0.9,0.9-1.5C272.1,71.8,272.2,71.2,272.2,70.4z"/>
		<path fill="#08A191" d="M292.6,63.8V77h-1.9v-9c0-0.1,0-0.3,0-0.5c0-0.2,0-0.3,0-0.5l-4.2,7.8c-0.2,0.3-0.4,0.5-0.8,0.5h-0.3
			c-0.3,0-0.6-0.2-0.8-0.5l-4.3-7.8c0,0.2,0,0.4,0,0.5c0,0.2,0,0.3,0,0.5v9h-1.9V63.8h1.6c0.2,0,0.3,0,0.4,0.1
			c0.1,0,0.2,0.1,0.3,0.3l4.2,7.7c0.1,0.2,0.2,0.4,0.3,0.5c0.1,0.2,0.2,0.4,0.2,0.6c0.1-0.2,0.2-0.4,0.2-0.6
			c0.1-0.2,0.2-0.4,0.3-0.6l4.2-7.6c0.1-0.2,0.2-0.3,0.3-0.3c0.1,0,0.3-0.1,0.4-0.1H292.6z"/>
		<path fill="#08A191" d="M301.6,63.8c0.9,0,1.6,0.1,2.2,0.3c0.6,0.2,1.2,0.5,1.6,0.8c0.4,0.4,0.7,0.8,0.9,1.3s0.3,1.1,0.3,1.7
			c0,0.6-0.1,1.2-0.3,1.7c-0.2,0.5-0.5,1-1,1.3c-0.4,0.4-0.9,0.7-1.6,0.9c-0.6,0.2-1.4,0.3-2.2,0.3h-2V77h-2.1V63.8H301.6z
			 M301.6,70.5c0.5,0,0.9-0.1,1.3-0.2c0.4-0.1,0.7-0.3,0.9-0.5c0.2-0.2,0.4-0.5,0.5-0.8c0.1-0.3,0.2-0.7,0.2-1.1
			c0-0.4-0.1-0.7-0.2-1c-0.1-0.3-0.3-0.6-0.5-0.8c-0.2-0.2-0.5-0.4-0.9-0.5c-0.4-0.1-0.8-0.2-1.3-0.2h-2v5H301.6z"/>
		<path fill="#08A191" d="M320.6,77H319c-0.2,0-0.3,0-0.5-0.1c-0.1-0.1-0.2-0.2-0.3-0.4l-1.1-2.9h-5.7l-1.1,2.9
			c0,0.1-0.1,0.2-0.3,0.3c-0.1,0.1-0.3,0.2-0.5,0.2H308l5.2-13.2h2.2L320.6,77z M316.6,72l-1.8-4.8c-0.1-0.4-0.3-0.8-0.4-1.4
			c-0.1,0.3-0.1,0.6-0.2,0.8c-0.1,0.2-0.2,0.5-0.2,0.6l-1.8,4.8H316.6z"/>
		<path fill="#08A191" d="M334.9,63.8V77h-1.1c-0.2,0-0.3,0-0.4-0.1c-0.1-0.1-0.2-0.2-0.3-0.3l-7.2-9.3c0,0.2,0,0.4,0,0.5
			c0,0.2,0,0.3,0,0.5V77H324V63.8h1.1c0.1,0,0.2,0,0.2,0c0.1,0,0.1,0,0.2,0c0.1,0,0.1,0.1,0.2,0.1c0,0,0.1,0.1,0.2,0.2l7.2,9.3
			c0-0.2,0-0.4,0-0.6s0-0.4,0-0.5v-8.6H334.9z"/>
		<path fill="#08A191" d="M345.2,71.8V77h-2.1v-5.2l-4.8-8h1.9c0.2,0,0.3,0,0.4,0.1c0.1,0.1,0.2,0.2,0.3,0.3l2.7,4.7
			c0.1,0.2,0.2,0.5,0.3,0.7c0.1,0.2,0.2,0.4,0.3,0.6c0.1-0.2,0.1-0.4,0.2-0.6c0.1-0.2,0.2-0.4,0.3-0.7l2.7-4.7
			c0.1-0.1,0.1-0.2,0.3-0.3c0.1-0.1,0.3-0.2,0.4-0.2h1.9L345.2,71.8z"/>
	</g>
	<path fill="#08A191" d="M0,0v43.4c0,24,19.4,43.4,43.4,43.4h0c24,0,43.4-19.4,43.4-43.4V0H0z M42.3,57.6h-9.1v-9.1h9.1V57.6z
		 M42.3,46.2h-9.1c0-5,4.1-9.1,9.1-9.1V46.2z M53.7,57.6h-9.1v-9.1h9.1V57.6z M44.6,46.2v-9.1c5,0,9.1,4.1,9.1,9.1H44.6z M73.5,46.8
		c-1.4,1.4-3.6,1.4-5,0L44.8,23.1c-0.8-0.8-2-0.8-2.7,0L18.4,46.8c-1.4,1.4-3.6,1.4-5,0c-1.4-1.4-1.4-3.6,0-5l25.4-25.4
		c2.6-2.6,6.8-2.6,9.4,0l25.4,25.4C74.9,43.2,74.9,45.4,73.5,46.8z"/>
</g>
</svg>
